# Blender 3.6.4
# www.blender.org
mtllib bigBox.mtl
o Cube.003
v 0.270728 0.000000 0.292394
v 0.270728 0.582481 0.292394
v 0.250672 0.040568 0.250672
v 0.250672 0.541913 0.250672
v 0.197528 0.582481 0.214799
v 0.197528 0.000000 0.214799
v 0.270728 0.582481 0.214799
v 0.270728 0.000000 0.214799
v 0.197528 0.582481 0.292394
v 0.197528 0.000000 0.292394
v -0.270728 0.000000 0.292394
v -0.270728 0.582481 0.292394
v -0.250672 0.040568 0.250672
v -0.250672 0.541913 0.250672
v -0.197528 0.582481 0.214799
v -0.197528 0.000000 0.214799
v -0.270728 0.582481 0.214799
v -0.270728 0.000000 0.214799
v -0.197528 0.582481 0.292394
v -0.197528 0.000000 0.292394
v 0.270728 0.000000 -0.292394
v 0.270728 0.582481 -0.292394
v 0.250672 0.040568 -0.250672
v 0.250672 0.541913 -0.250672
v 0.197528 0.582481 -0.214799
v 0.197528 0.000000 -0.214799
v 0.270728 0.582481 -0.214799
v 0.270728 0.000000 -0.214799
v 0.197528 0.582481 -0.292394
v 0.197528 0.000000 -0.292394
v -0.270728 0.000000 -0.292394
v -0.270728 0.582481 -0.292394
v -0.250672 0.040568 -0.250672
v -0.250672 0.541913 -0.250672
v -0.197528 0.582481 -0.214799
v -0.197528 0.000000 -0.214799
v -0.270728 0.582481 -0.214799
v -0.270728 0.000000 -0.214799
v -0.197528 0.582481 -0.292394
v -0.197528 0.000000 -0.292394
v -0.187345 0.046219 -0.245540
v 0.243865 0.046219 0.189522
v -0.243865 0.046219 -0.189521
v 0.187345 0.046219 0.245541
v 0.243865 0.028234 0.189522
v -0.187345 0.028234 -0.245540
v 0.187345 0.028234 0.245541
v -0.243865 0.028234 -0.189521
v -0.246208 0.053234 0.186468
v 0.190390 0.053234 -0.243186
v -0.190391 0.053234 0.243188
v 0.246207 0.053234 -0.186466
v 0.190390 0.035248 -0.243186
v -0.246208 0.035248 0.186468
v 0.246207 0.035248 -0.186466
v -0.190391 0.035248 0.243188
v -0.187345 0.536261 -0.245540
v 0.243865 0.536261 0.189522
v -0.243865 0.536261 -0.189521
v 0.187345 0.536261 0.245541
v 0.243865 0.554247 0.189522
v -0.187345 0.554247 -0.245540
v 0.187345 0.554247 0.245541
v -0.243865 0.554247 -0.189521
v -0.246208 0.529247 0.186468
v 0.190390 0.529247 -0.243186
v -0.190391 0.529247 0.243188
v 0.246207 0.529247 -0.186466
v 0.190390 0.547233 -0.243186
v -0.246208 0.547233 0.186468
v 0.246207 0.547232 -0.186466
v -0.190391 0.547232 0.243188
v -0.292401 0.021465 -0.223706
v 0.292401 0.021465 -0.223706
v -0.292401 0.099060 -0.285611
v 0.292401 0.099060 -0.285611
v -0.292401 0.099060 -0.223706
v 0.292401 0.099060 -0.223706
v 0.292401 0.021465 -0.285611
v -0.292401 0.021465 -0.285611
v -0.292401 0.021465 0.223706
v 0.292401 0.021465 0.223706
v -0.292401 0.099060 0.285611
v 0.292401 0.099060 0.285611
v -0.292401 0.099060 0.223706
v 0.292401 0.099060 0.223706
v 0.292401 0.021465 0.285611
v -0.292401 0.021465 0.285611
v -0.292401 0.561016 -0.223706
v 0.292401 0.561016 -0.223706
v -0.292401 0.483421 -0.285611
v 0.292401 0.483421 -0.285611
v -0.292401 0.483421 -0.223706
v 0.292401 0.483421 -0.223706
v 0.292401 0.561016 -0.285611
v -0.292401 0.561016 -0.285611
v -0.292401 0.561016 0.223706
v 0.292401 0.561016 0.223706
v -0.292401 0.483421 0.285611
v 0.292401 0.483421 0.285611
v -0.292401 0.483421 0.223706
v 0.292401 0.483421 0.223706
v 0.292401 0.561016 0.285611
v -0.292401 0.561016 0.285611
v 0.203176 0.019001 -0.331477
v 0.203176 0.019001 0.331477
v 0.265080 0.096596 -0.331477
v 0.265080 0.096596 0.331477
v 0.203176 0.096596 -0.331477
v 0.203176 0.096596 0.331477
v 0.265080 0.019001 0.331477
v 0.265080 0.019001 -0.331477
v -0.203176 0.019001 -0.331477
v -0.203176 0.019001 0.331477
v -0.265080 0.096596 -0.331477
v -0.265080 0.096596 0.331477
v -0.203176 0.096596 -0.331477
v -0.203176 0.096596 0.331477
v -0.265080 0.019001 0.331477
v -0.265080 0.019001 -0.331477
v 0.203176 0.563480 -0.331477
v 0.203176 0.563480 0.331477
v 0.265080 0.485885 -0.331477
v 0.265080 0.485885 0.331477
v 0.203176 0.485885 -0.331477
v 0.203176 0.485885 0.331477
v 0.265080 0.563480 0.331477
v 0.265080 0.563480 -0.331477
v -0.203176 0.563480 -0.331477
v -0.203176 0.563480 0.331477
v -0.265080 0.485885 -0.331477
v -0.265080 0.485885 0.331477
v -0.203176 0.485885 -0.331477
v -0.203176 0.485885 0.331477
v -0.265080 0.563480 0.331477
v -0.265080 0.563480 -0.331477
v 0.245540 0.103895 0.245021
v -0.189522 0.535105 0.245021
v 0.189521 0.047376 0.245021
v -0.245541 0.478586 0.245021
v -0.189522 0.535105 0.263006
v 0.245540 0.103895 0.263007
v -0.245541 0.478586 0.263006
v 0.189521 0.047376 0.263006
v -0.186468 0.045032 0.238007
v 0.243186 0.481631 0.238007
v -0.243188 0.100849 0.238007
v 0.186466 0.537448 0.238007
v 0.243186 0.481631 0.255992
v -0.186468 0.045032 0.255992
v 0.186466 0.537448 0.255992
v -0.243188 0.100849 0.255992
v 0.245540 0.103895 -0.245021
v -0.189522 0.535105 -0.245021
v 0.189521 0.047376 -0.245021
v -0.245541 0.478586 -0.245021
v -0.189522 0.535105 -0.263006
v 0.245540 0.103895 -0.263006
v -0.245541 0.478586 -0.263006
v 0.189521 0.047376 -0.263006
v -0.186468 0.045032 -0.238007
v 0.243186 0.481631 -0.238007
v -0.243188 0.100849 -0.238007
v 0.186466 0.537448 -0.238007
v 0.243186 0.481631 -0.255992
v -0.186468 0.045032 -0.255992
v 0.186466 0.537448 -0.255992
v -0.243188 0.100849 -0.255992
v 0.245021 0.103895 -0.245540
v 0.245021 0.535105 0.189522
v 0.245021 0.047376 -0.189521
v 0.245021 0.478586 0.245541
v 0.263006 0.535105 0.189522
v 0.263006 0.103895 -0.245540
v 0.263006 0.478586 0.245541
v 0.263006 0.047376 -0.189521
v 0.238007 0.045032 0.186468
v 0.238007 0.481631 -0.243186
v 0.238007 0.100849 0.243188
v 0.238007 0.537448 -0.186466
v 0.255992 0.481631 -0.243186
v 0.255992 0.045032 0.186468
v 0.255992 0.537448 -0.186466
v 0.255992 0.100849 0.243188
v -0.245021 0.103895 -0.245540
v -0.245021 0.535105 0.189522
v -0.245021 0.047376 -0.189521
v -0.245021 0.478586 0.245541
v -0.263006 0.535105 0.189522
v -0.263006 0.103895 -0.245540
v -0.263006 0.478586 0.245541
v -0.263006 0.047376 -0.189521
v -0.238007 0.045032 0.186468
v -0.238007 0.481631 -0.243186
v -0.238007 0.100849 0.243188
v -0.238007 0.537448 -0.186466
v -0.255992 0.481631 -0.243186
v -0.255992 0.045032 0.186468
v -0.255992 0.537448 -0.186466
v -0.255992 0.100849 0.243188
vn 1.0000 -0.0000 -0.0000
vn -0.0000 1.0000 -0.0000
vn -0.0000 -0.0000 1.0000
vn -0.0000 -1.0000 -0.0000
vn -1.0000 -0.0000 -0.0000
vn -0.0000 -0.0000 -1.0000
vn -0.7102 -0.0000 0.7040
vn 0.7102 -0.0000 -0.7040
vn 0.7014 -0.0000 0.7128
vn -0.7014 -0.0000 -0.7128
vn -0.7040 -0.7102 -0.0000
vn 0.7040 0.7102 -0.0000
vn -0.7128 0.7014 -0.0000
vn 0.7128 -0.7014 -0.0000
vn -0.0000 -0.7102 0.7040
vn -0.0000 0.7102 -0.7040
vn -0.0000 0.7014 0.7128
vn -0.0000 -0.7014 -0.7128
vt 0.334655 0.943771
vt 0.334655 0.972473
vt 0.330832 0.972473
vt 0.330832 0.943771
vt 0.973678 0.529656
vt 0.973678 0.504953
vt 0.998382 0.504953
vt 0.998382 0.529656
vt 0.616171 0.997185
vt 0.616171 0.972482
vt 0.640875 0.972482
vt 0.640875 0.997185
vt 0.853875 0.415919
vt 0.857482 0.415919
vt 0.857482 0.419742
vt 0.853875 0.419742
vt 0.403610 0.974718
vt 0.403610 0.946017
vt 0.407433 0.946017
vt 0.407433 0.974718
vt 0.421120 0.946017
vt 0.421120 0.974718
vt 0.417513 0.974718
vt 0.417513 0.946017
vt 0.424356 0.946017
vt 0.427963 0.946017
vt 0.427963 0.974718
vt 0.424356 0.974718
vt 0.853875 0.430038
vt 0.857482 0.430038
vt 0.857482 0.433862
vt 0.853875 0.433862
vt 0.969068 0.353770
vt 0.972891 0.353770
vt 0.972891 0.382471
vt 0.969068 0.382471
vt 0.715884 0.998086
vt 0.715884 0.973383
vt 0.740587 0.973383
vt 0.740587 0.998086
vt 0.832329 0.752520
vt 0.832329 0.756344
vt 0.828723 0.756344
vt 0.828723 0.752520
vt 0.973873 0.091473
vt 0.970050 0.091473
vt 0.970050 0.062772
vt 0.973873 0.062772
vt 0.431200 0.946017
vt 0.434807 0.946017
vt 0.434807 0.974718
vt 0.431200 0.974718
vt 0.448493 0.946017
vt 0.448493 0.974718
vt 0.444886 0.974718
vt 0.444886 0.946017
vt 0.571837 0.836205
vt 0.571837 0.840029
vt 0.568230 0.840029
vt 0.568230 0.836205
vt 0.970270 0.606229
vt 0.974093 0.606229
vt 0.974093 0.634930
vt 0.970270 0.634930
vt 0.973517 0.278143
vt 0.973517 0.253439
vt 0.998221 0.253439
vt 0.998221 0.278143
vt 0.568230 0.832969
vt 0.568230 0.829145
vt 0.571837 0.829145
vt 0.571837 0.832969
vt 0.341715 0.972473
vt 0.337892 0.972473
vt 0.337892 0.943771
vt 0.341715 0.943771
vt 0.410670 0.946017
vt 0.414277 0.946017
vt 0.414277 0.974718
vt 0.410670 0.974718
vt 0.441650 0.946017
vt 0.441650 0.974718
vt 0.438043 0.974718
vt 0.438043 0.946017
vt 0.835566 0.756344
vt 0.835566 0.752520
vt 0.839173 0.752520
vt 0.839173 0.756344
vt 0.327596 0.943771
vt 0.327596 0.972472
vt 0.323772 0.972472
vt 0.323772 0.943771
vt 0.973555 0.192317
vt 0.973555 0.167614
vt 0.998258 0.167614
vt 0.998258 0.192317
vt 0.766300 0.996796
vt 0.766300 0.972092
vt 0.791003 0.972092
vt 0.791003 0.996796
vt 0.857482 0.426802
vt 0.853875 0.426802
vt 0.853875 0.422979
vt 0.857482 0.422979
vt 0.968860 0.788669
vt 0.968860 0.759967
vt 0.972684 0.759967
vt 0.972684 0.788669
vt 0.455336 0.946017
vt 0.455336 0.974718
vt 0.451729 0.974718
vt 0.451729 0.946017
vt 0.970911 0.211349
vt 0.974518 0.211349
vt 0.974518 0.240051
vt 0.970911 0.240051
vt 0.769907 0.847553
vt 0.766300 0.847553
vt 0.766300 0.843730
vt 0.769907 0.843730
vt 0.030884 0.865542
vt 0.026963 0.865542
vt 0.026963 0.835359
vt 0.030884 0.835359
vt 0.029483 0.716285
vt 0.029483 0.686102
vt 0.030369 0.686102
vt 0.030369 0.716285
vt 0.791301 0.386285
vt 0.791301 0.416468
vt 0.790415 0.416468
vt 0.790415 0.386285
vt 0.969687 0.149247
vt 0.965766 0.149247
vt 0.965766 0.119063
vt 0.969687 0.119063
vt 0.657306 0.846325
vt 0.657306 0.876508
vt 0.656420 0.876508
vt 0.656420 0.846325
vt 0.105177 0.753328
vt 0.105177 0.783511
vt 0.104291 0.783511
vt 0.104291 0.753328
vt 0.796266 0.847568
vt 0.796266 0.877751
vt 0.792345 0.877751
vt 0.792345 0.847568
vt 0.104291 0.719908
vt 0.105177 0.719908
vt 0.105177 0.750091
vt 0.104291 0.750091
vt 0.029483 0.585843
vt 0.030369 0.585843
vt 0.030369 0.616026
vt 0.029483 0.616026
vt 0.965759 0.588245
vt 0.965759 0.558062
vt 0.969680 0.558062
vt 0.969680 0.588245
vt 0.030369 0.749704
vt 0.029483 0.749704
vt 0.029483 0.719521
vt 0.030369 0.719521
vt 0.030369 0.783124
vt 0.029483 0.783124
vt 0.029483 0.752941
vt 0.030369 0.752941
vt 0.376812 0.970737
vt 0.373762 0.970737
vt 0.373762 0.941921
vt 0.376812 0.941921
vt 0.892224 0.053616
vt 0.889174 0.053616
vt 0.889174 0.049792
vt 0.892224 0.049792
vt 0.599380 0.929331
vt 0.599380 0.958147
vt 0.596330 0.958147
vt 0.596330 0.929331
vt 0.969992 0.658827
vt 0.969992 0.687642
vt 0.966169 0.687642
vt 0.966169 0.658827
vt 0.969883 0.914704
vt 0.969883 0.943519
vt 0.966060 0.943519
vt 0.966060 0.914704
vt 0.887859 0.114969
vt 0.884808 0.114969
vt 0.884808 0.111146
vt 0.887859 0.111146
vt 0.656420 0.908560
vt 0.656420 0.879744
vt 0.659470 0.879744
vt 0.659470 0.908560
vt 0.888442 0.811958
vt 0.888442 0.808134
vt 0.891492 0.808134
vt 0.891492 0.811958
vt 0.970442 0.533769
vt 0.967392 0.533769
vt 0.967392 0.504953
vt 0.970442 0.504953
vt 0.349346 0.970737
vt 0.345522 0.970737
vt 0.345522 0.941921
vt 0.349346 0.941921
vt 0.970281 0.282255
vt 0.966457 0.282255
vt 0.966457 0.253439
vt 0.970281 0.253439
vt 0.892505 0.550306
vt 0.892505 0.554129
vt 0.889455 0.554129
vt 0.889455 0.550306
vt 0.160535 0.864703
vt 0.160535 0.893519
vt 0.157485 0.893519
vt 0.157485 0.864703
vt 0.875285 0.111146
vt 0.875285 0.114969
vt 0.872235 0.114969
vt 0.872235 0.111146
vt 0.093261 0.971856
vt 0.090211 0.971856
vt 0.090211 0.943041
vt 0.093261 0.943041
vt 0.356406 0.970737
vt 0.352582 0.970737
vt 0.352582 0.941921
vt 0.356406 0.941921
vt 0.366702 0.941921
vt 0.370525 0.941921
vt 0.370525 0.970737
vt 0.366702 0.970737
vt 0.768365 0.826441
vt 0.768365 0.822618
vt 0.771415 0.822618
vt 0.771415 0.826441
vt 0.160917 0.932574
vt 0.157867 0.932574
vt 0.157867 0.903758
vt 0.160917 0.903758
vt 0.878522 0.111146
vt 0.881572 0.111146
vt 0.881572 0.114969
vt 0.878522 0.114969
vt 0.596330 0.926094
vt 0.596330 0.897279
vt 0.599380 0.897279
vt 0.599380 0.926094
vt 0.359642 0.970737
vt 0.359642 0.941921
vt 0.363465 0.941921
vt 0.363465 0.970737
vt 0.657382 0.940256
vt 0.657382 0.969072
vt 0.653558 0.969072
vt 0.653558 0.940256
vt 0.633375 0.458591
vt 0.636426 0.458591
vt 0.636426 0.462414
vt 0.633375 0.462414
vt 0.656420 0.774519
vt 0.659470 0.774519
vt 0.659470 0.807185
vt 0.656420 0.807185
vt 0.795396 0.884811
vt 0.792345 0.884811
vt 0.792345 0.880988
vt 0.795396 0.880988
vt 0.771416 0.786715
vt 0.771416 0.819382
vt 0.768365 0.819382
vt 0.768365 0.786715
vt 0.642851 0.215038
vt 0.642851 0.247705
vt 0.639027 0.247705
vt 0.639027 0.215038
vt 0.833769 0.245424
vt 0.833769 0.212757
vt 0.837592 0.212757
vt 0.837592 0.245424
vt 0.795396 0.891871
vt 0.792345 0.891871
vt 0.792345 0.888047
vt 0.795396 0.888047
vt 0.659470 0.810422
vt 0.659470 0.843088
vt 0.656420 0.843088
vt 0.656420 0.810422
vt 0.882887 0.053616
vt 0.882887 0.049792
vt 0.885937 0.049792
vt 0.885937 0.053616
vt 0.768365 0.750812
vt 0.771415 0.750812
vt 0.771415 0.783479
vt 0.768365 0.783479
vt 0.843494 0.315588
vt 0.847317 0.315588
vt 0.847317 0.348255
vt 0.843494 0.348255
vt 0.170847 0.725131
vt 0.167024 0.725131
vt 0.167024 0.692465
vt 0.170847 0.692465
vt 0.892231 0.491103
vt 0.892231 0.494927
vt 0.889181 0.494927
vt 0.889181 0.491103
vt 0.853604 0.315588
vt 0.853604 0.348255
vt 0.850553 0.348255
vt 0.850553 0.315588
vt 0.892771 0.750715
vt 0.892771 0.754538
vt 0.889721 0.754538
vt 0.889721 0.750715
vt 0.813342 0.393104
vt 0.816392 0.393104
vt 0.816392 0.425771
vt 0.813342 0.425771
vt 0.167024 0.728368
vt 0.170847 0.728368
vt 0.170847 0.761034
vt 0.167024 0.761034
vt 0.167024 0.764271
vt 0.170847 0.764271
vt 0.170847 0.796937
vt 0.167024 0.796937
vt 0.768365 0.833501
vt 0.768365 0.829678
vt 0.771415 0.829678
vt 0.771415 0.833501
vt 0.813342 0.357202
vt 0.816392 0.357202
vt 0.816392 0.389868
vt 0.813342 0.389868
vt 0.859662 0.111146
vt 0.862712 0.111146
vt 0.862712 0.114969
vt 0.859662 0.114969
vt 0.854670 0.620211
vt 0.854670 0.652877
vt 0.851620 0.652877
vt 0.851620 0.620211
vt 0.568230 0.814189
vt 0.568230 0.781522
vt 0.572053 0.781522
vt 0.572053 0.814189
vt 0.224885 0.770394
vt 0.224885 0.737727
vt 0.228709 0.737727
vt 0.228709 0.770394
vt 0.865948 0.111146
vt 0.868999 0.111146
vt 0.868999 0.114969
vt 0.865948 0.114969
vt 0.389464 0.964542
vt 0.385543 0.964542
vt 0.385543 0.934359
vt 0.389464 0.934359
vt 0.283979 0.668132
vt 0.283979 0.637949
vt 0.284865 0.637949
vt 0.284865 0.668132
vt 0.030369 0.786360
vt 0.030369 0.816543
vt 0.029483 0.816543
vt 0.029483 0.786360
vt 0.602883 0.937739
vt 0.606804 0.937739
vt 0.606804 0.967922
vt 0.602883 0.967922
vt 0.510761 0.726849
vt 0.510761 0.696666
vt 0.511647 0.696666
vt 0.511647 0.726849
vt 0.868757 0.649399
vt 0.868757 0.619215
vt 0.869643 0.619215
vt 0.869643 0.649399
vt 0.856425 0.084786
vt 0.856425 0.114969
vt 0.852504 0.114969
vt 0.852504 0.084786
vt 0.808818 0.781158
vt 0.809705 0.781158
vt 0.809705 0.811341
vt 0.808818 0.811341
vt 0.534937 0.781466
vt 0.535823 0.781466
vt 0.535823 0.811649
vt 0.534937 0.811649
vt 0.094132 0.909621
vt 0.094132 0.939804
vt 0.090211 0.939804
vt 0.090211 0.909621
vt 0.284865 0.734971
vt 0.283979 0.734971
vt 0.283979 0.704788
vt 0.284865 0.704788
vt 0.283979 0.671368
vt 0.284865 0.671368
vt 0.284865 0.701551
vt 0.283979 0.701551
vt 0.857326 0.751158
vt 0.853405 0.751158
vt 0.853405 0.720975
vt 0.857326 0.720975
vt 0.510761 0.693429
vt 0.510761 0.663246
vt 0.511647 0.663246
vt 0.511647 0.693429
vt 0.597216 0.863859
vt 0.597216 0.894042
vt 0.596330 0.894042
vt 0.596330 0.863859
vt 0.385543 0.900939
vt 0.389464 0.900939
vt 0.389464 0.931122
vt 0.385543 0.931122
vt 0.029483 0.682865
vt 0.029483 0.652682
vt 0.030369 0.652682
vt 0.030369 0.682865
vt 0.284865 0.738207
vt 0.284865 0.768390
vt 0.283979 0.768390
vt 0.283979 0.738207
vt 0.849268 0.084786
vt 0.849268 0.114969
vt 0.845347 0.114969
vt 0.845347 0.084786
vt 0.510761 0.730085
vt 0.511647 0.730085
vt 0.511647 0.760268
vt 0.510761 0.760268
vt 0.869030 0.314593
vt 0.869916 0.314593
vt 0.869916 0.344776
vt 0.869030 0.344776
vt 0.360940 0.855871
vt 0.360940 0.886054
vt 0.357019 0.886054
vt 0.357019 0.855871
vt 0.105177 0.716672
vt 0.104291 0.716672
vt 0.104291 0.686489
vt 0.105177 0.686489
vt 0.029483 0.619263
vt 0.030369 0.619263
vt 0.030369 0.649446
vt 0.029483 0.649446
s 0
usemtl First
f 8/1/1 7/2/1 2/3/1 1/4/1
f 14/5/2 4/6/2 24/7/2 34/8/2
f 13/9/3 3/10/3 4/11/3 14/12/3
f 6/13/4 8/14/4 1/15/4 10/16/4
f 5/17/5 6/18/5 10/19/5 9/20/5
f 1/21/3 2/22/3 9/23/3 10/24/3
f 8/25/6 6/26/6 5/27/6 7/28/6
f 7/29/2 5/30/2 9/31/2 2/32/2
f 18/33/5 11/34/5 12/35/5 17/36/5
f 33/37/6 34/38/6 24/39/6 23/40/6
f 16/41/4 20/42/4 11/43/4 18/44/4
f 15/45/1 19/46/1 20/47/1 16/48/1
f 11/49/3 20/50/3 19/51/3 12/52/3
f 18/53/6 17/54/6 15/55/6 16/56/6
f 17/57/2 12/58/2 19/59/2 15/60/2
f 28/61/1 21/62/1 22/63/1 27/64/1
f 3/65/1 23/66/1 24/67/1 4/68/1
f 26/69/4 30/70/4 21/71/4 28/72/4
f 25/73/5 29/74/5 30/75/5 26/76/5
f 21/77/6 30/78/6 29/79/6 22/80/6
f 28/81/3 27/82/3 25/83/3 26/84/3
f 27/85/2 22/86/2 29/87/2 25/88/2
f 38/89/5 37/90/5 32/91/5 31/92/5
f 14/93/5 34/94/5 33/95/5 13/96/5
f 3/97/4 13/98/4 33/99/4 23/100/4
f 36/101/4 38/102/4 31/103/4 40/104/4
f 35/105/1 36/106/1 40/107/1 39/108/1
f 31/109/6 32/110/6 39/111/6 40/112/6
f 38/113/3 36/114/3 35/115/3 37/116/3
f 37/117/2 35/118/2 39/119/2 32/120/2
f 48/121/4 46/122/4 45/123/4 47/124/4
f 44/125/7 43/126/7 48/127/7 47/128/7
f 41/129/8 42/130/8 45/131/8 46/132/8
f 56/133/4 54/134/4 53/135/4 55/136/4
f 52/137/9 51/138/9 56/139/9 55/140/9
f 49/141/10 50/142/10 53/143/10 54/144/10
f 64/145/2 63/146/2 61/147/2 62/148/2
f 60/149/7 63/150/7 64/151/7 59/152/7
f 57/153/8 62/154/8 61/155/8 58/156/8
f 72/157/2 71/158/2 69/159/2 70/160/2
f 68/161/9 71/162/9 72/163/9 67/164/9
f 65/165/10 70/166/10 69/167/10 66/168/10
f 75/169/2 77/170/2 78/171/2 76/172/2
f 76/173/1 78/174/1 74/175/1 79/176/1
f 80/177/4 79/178/4 74/179/4 73/180/4
f 75/181/6 76/182/6 79/183/6 80/184/6
f 78/185/3 77/186/3 73/187/3 74/188/3
f 77/189/5 75/190/5 80/191/5 73/192/5
f 83/193/2 84/194/2 86/195/2 85/196/2
f 84/197/1 87/198/1 82/199/1 86/200/1
f 88/201/4 81/202/4 82/203/4 87/204/4
f 83/205/3 88/206/3 87/207/3 84/208/3
f 86/209/6 82/210/6 81/211/6 85/212/6
f 85/213/5 81/214/5 88/215/5 83/216/5
f 91/217/4 92/218/4 94/219/4 93/220/4
f 92/221/1 95/222/1 90/223/1 94/224/1
f 96/225/2 89/226/2 90/227/2 95/228/2
f 91/229/6 96/230/6 95/231/6 92/232/6
f 94/233/3 90/234/3 89/235/3 93/236/3
f 93/237/5 89/238/5 96/239/5 91/240/5
f 99/241/4 101/242/4 102/243/4 100/244/4
f 100/245/1 102/246/1 98/247/1 103/248/1
f 104/249/2 103/250/2 98/251/2 97/252/2
f 99/253/3 100/254/3 103/255/3 104/256/3
f 102/257/6 101/258/6 97/259/6 98/260/6
f 101/261/5 99/262/5 104/263/5 97/264/5
f 107/265/2 109/266/2 110/267/2 108/268/2
f 108/269/3 110/270/3 106/271/3 111/272/3
f 112/273/4 111/274/4 106/275/4 105/276/4
f 107/277/1 108/278/1 111/279/1 112/280/1
f 110/281/5 109/282/5 105/283/5 106/284/5
f 109/285/6 107/286/6 112/287/6 105/288/6
f 115/289/2 116/290/2 118/291/2 117/292/2
f 116/293/3 119/294/3 114/295/3 118/296/3
f 120/297/4 113/298/4 114/299/4 119/300/4
f 115/301/5 120/302/5 119/303/5 116/304/5
f 118/305/1 114/306/1 113/307/1 117/308/1
f 117/309/6 113/310/6 120/311/6 115/312/6
f 123/313/4 124/314/4 126/315/4 125/316/4
f 124/317/3 127/318/3 122/319/3 126/320/3
f 128/321/2 121/322/2 122/323/2 127/324/2
f 123/325/1 128/326/1 127/327/1 124/328/1
f 126/329/5 122/330/5 121/331/5 125/332/5
f 125/333/6 121/334/6 128/335/6 123/336/6
f 131/337/4 133/338/4 134/339/4 132/340/4
f 132/341/3 134/342/3 130/343/3 135/344/3
f 136/345/2 135/346/2 130/347/2 129/348/2
f 131/349/5 132/350/5 135/351/5 136/352/5
f 134/353/1 133/354/1 129/355/1 130/356/1
f 133/357/6 131/358/6 136/359/6 129/360/6
f 144/361/3 142/362/3 141/363/3 143/364/3
f 140/365/11 139/366/11 144/367/11 143/368/11
f 137/369/12 138/370/12 141/371/12 142/372/12
f 152/373/3 150/374/3 149/375/3 151/376/3
f 148/377/13 147/378/13 152/379/13 151/380/13
f 145/381/14 146/382/14 149/383/14 150/384/14
f 160/385/6 159/386/6 157/387/6 158/388/6
f 156/389/11 159/390/11 160/391/11 155/392/11
f 153/393/12 158/394/12 157/395/12 154/396/12
f 168/397/6 167/398/6 165/399/6 166/400/6
f 164/401/13 167/402/13 168/403/13 163/404/13
f 161/405/14 166/406/14 165/407/14 162/408/14
f 176/409/1 174/410/1 173/411/1 175/412/1
f 172/413/15 171/414/15 176/415/15 175/416/15
f 169/417/16 170/418/16 173/419/16 174/420/16
f 184/421/1 182/422/1 181/423/1 183/424/1
f 180/425/17 179/426/17 184/427/17 183/428/17
f 177/429/18 178/430/18 181/431/18 182/432/18
f 192/433/5 191/434/5 189/435/5 190/436/5
f 188/437/15 191/438/15 192/439/15 187/440/15
f 185/441/16 190/442/16 189/443/16 186/444/16
f 200/445/5 199/446/5 197/447/5 198/448/5
f 196/449/17 199/450/17 200/451/17 195/452/17
f 193/453/18 198/454/18 197/455/18 194/456/18
